<svg xmlns="http://www.w3.org/2000/svg" width="960" height="960">
    <g clip-path="url(#a)">
        <path
            d="M810.666667 484.906667a277.333333 277.333333 0 0 0-554.666667 0V661.333333a277.333333 277.333333 0 0 0 554.666667 0z"
            fill="#FFB74D" p-id="1995"></path>
        <path
            d="M661.333333 618.666667m-42.666666 0a42.666667 42.666667 0 1 0 85.333333 0 42.666667 42.666667 0 1 0-85.333333 0Z"
            fill="#FDFAF8" p-id="1996"></path>
        <path
            d="M480 725.333333l22.826667-21.333333a46.08 46.08 0 0 1 61.013333 0l22.826667 21.333333z"
            fill="#FB8C00" p-id="1997"></path>
        <path
            d="M661.333333 618.666667m-21.333333 0a21.333333 21.333333 0 1 0 42.666667 0 21.333333 21.333333 0 1 0-42.666667 0Z"
            fill="#2196F3" p-id="1998"></path>
        <path
            d="M405.333333 618.666667m-42.666666 0a42.666667 42.666667 0 1 0 85.333333 0 42.666667 42.666667 0 1 0-85.333333 0Z"
            fill="#FDFAF8" p-id="1999"></path>
        <path
            d="M405.333333 618.666667m-21.333333 0a21.333333 21.333333 0 1 0 42.666667 0 21.333333 21.333333 0 1 0-42.666667 0Z"
            fill="#2196F3" p-id="2000"></path>
        <path
            d="M533.333333 149.333333a298.666667 298.666667 0 0 0-298.666666 298.666667v119.466667l59.733333 39.893333V448c0-98.986667 99.626667-139.306667 99.626667-139.306667A276.053333 276.053333 0 0 0 533.333333 348.373333a276.053333 276.053333 0 0 0 139.306667-39.68S772.266667 349.013333 772.266667 448v159.36L832 567.466667V448A298.666667 298.666667 0 0 0 533.333333 149.333333z"
            fill="#FB8C00" p-id="2001"></path>
        <path
            d="M853.333333 469.333333h42.666667a64 64 0 0 1 64 64v85.333334a64 64 0 0 1-64 64h-42.666667V469.333333zM213.333333 682.666667H170.666667a64 64 0 0 1-64-64v-85.333334a64 64 0 0 1 64-64h42.666666v213.333334z"
            fill="#F44336" p-id="2002"></path>
        <path
            d="M789.333333 584.106667a117.333333 117.333333 0 1 1-234.666666 0c0-53.12 65.493333-72.106667 117.333333-72.106667s117.333333 18.986667 117.333333 72.106667zM512 584.106667a117.333333 117.333333 0 1 1-234.666667 0c0-53.12 65.493333-72.106667 117.333334-72.106667s117.333333 18.986667 117.333333 72.106667z"
            fill="#3F51B5" p-id="2003"></path>
        <path
            d="M320 584.533333a64 64 0 0 0 5.12 26.026667L341.333333 618.666667l64-42.666667v-29.653333h-21.333333c-28.373333-0.213333-64 9.813333-64 38.186666zM597.333333 584.533333a64 64 0 0 0 5.12 26.026667L618.666667 618.666667l64-42.666667v-29.653333h-21.333334c-28.373333-0.213333-64 9.813333-64 38.186666z"
            fill="#7986CB" p-id="2004"></path>
        <path
            d="M810.666667 448m32 0l0 0q32 0 32 32l0 192q0 32-32 32l0 0q-32 0-32-32l0-192q0-32 32-32Z"
            fill="#B71C1C" p-id="2005"></path>
        <path d="M256 704m-32 0l0 0q-32 0-32-32l0-192q0-32 32-32l0 0q32 0 32 32l0 192q0 32-32 32Z"
            fill="#B71C1C" p-id="2006"></path>
    </g>
</svg>